<svg width="55" height="53" viewBox="0 0 55 53" fill="none" xmlns="http://www.w3.org/2000/svg">
<path d="M29.1976 40.6412L35.829 34.2509C36.178 33.9147 36.7269 33.8679 37.1317 34.1399L47.3905 41.0347C47.9104 41.3842 47.9763 42.1016 47.528 42.5335L44.1199 45.8177C43.3966 46.5147 42.3665 46.8167 41.3799 46.5564C37.5 45.533 27.2243 42.2253 18.9331 34.2357C10.642 26.246 7.20944 16.344 6.14743 12.6051C5.87738 11.6544 6.19074 10.6618 6.91403 9.9648L10.3222 6.6806C10.7704 6.24866 11.5149 6.31209 11.8775 6.81313L19.0325 16.6989C19.3148 17.0889 19.2662 17.6179 18.9173 17.9542L12.2859 24.3444" stroke="#F2F2F2" stroke-width="5" stroke-linecap="round"/>
</svg>
