<svg width="67" height="65" viewBox="0 0 67 65" fill="none" xmlns="http://www.w3.org/2000/svg">
<path d="M35.568 49.843L43.7798 41.8763C44.1276 41.5389 44.6748 41.492 45.0782 41.7649L57.9511 50.4751C58.4693 50.8257 58.5349 51.5456 58.0881 51.9791L53.4896 56.4403C52.7687 57.1397 51.7366 57.4414 50.7513 57.1873C46.3156 56.0437 33.4192 52.0332 23.064 41.9871C12.7088 31.9411 8.57499 19.4297 7.39615 15.1264C7.13428 14.1704 7.4452 13.1692 8.16614 12.4697L12.7646 8.00851C13.2114 7.57505 13.9535 7.63871 14.3149 8.1415L23.293 20.6301C23.5744 21.0215 23.526 21.5523 23.1782 21.8897L14.9665 29.8564" stroke="#F2F2F2" stroke-width="5" stroke-linecap="round"/>
</svg>
