<svg width="302" height="302" viewBox="0 0 302 302" fill="none" xmlns="http://www.w3.org/2000/svg">
<path d="M162.416 117.116C162.416 117.116 160.483 115.787 158.188 117.116C155.892 118.445 135.356 141.276 121.162 140.793C107.029 140.31 76.1645 139.102 61.3061 155.289C46.4477 171.476 46.8101 190.985 56.4741 199.804C66.1381 208.622 74.3525 217.078 74.3525 217.078C74.3525 217.078 77.2517 219.977 79.9093 217.803C79.9093 217.803 87.8821 192.254 94.5261 192.133C101.17 192.012 97.3045 202.642 99.4789 203.488C101.653 204.334 112.163 202.038 113.612 204.938C115.062 207.837 92.2309 220.038 93.9221 223.058C95.6133 226.078 141.94 225.353 141.94 225.353C141.94 225.353 147.376 223.782 147.376 219.917C147.376 216.051 149.248 170.147 143.148 164.047C143.148 164.047 141.094 159.094 145.443 158.369C149.792 157.644 180.173 145.444 179.932 138.196C179.932 138.196 180.294 136.867 178.844 134.753C177.395 132.76 162.416 117.116 162.416 117.116Z" fill="white"/>
<path d="M170.63 107.936H214.843C214.843 107.936 207.776 125.27 192.736 125.27C177.697 125.27 170.63 107.936 170.63 107.936Z" fill="white"/>
<path d="M196.542 102.801C227.398 102.801 252.412 99.9891 252.412 96.5199C252.412 93.0507 227.398 90.2383 196.542 90.2383C165.686 90.2383 140.672 93.0507 140.672 96.5199C140.672 99.9891 165.686 102.801 196.542 102.801Z" fill="white"/>
<path d="M73.4467 118.988C71.5139 115.062 70.4267 110.653 70.4267 106.002C70.4267 89.6944 83.6543 76.4668 99.9623 76.4668C109.385 76.4668 117.78 80.876 123.216 87.7616L131.914 82.8088C131.914 82.8088 134.028 81.9632 135.115 82.99C136.202 84.0168 134.149 85.6476 134.149 85.6476L73.4467 118.988Z" fill="white"/>
<path d="M76.104 123.518C81.4796 130.585 89.996 135.115 99.5392 135.115C115.847 135.115 129.075 121.887 129.075 105.579C129.075 102.137 128.471 98.8145 127.384 95.7341L76.104 123.518Z" fill="white"/>
</svg>
